<?xml version="1.0" encoding="UTF-8"?>
<svg version="1.1" viewBox="0 0 2000 2000" width="500" height="500" xmlns="http://www.w3.org/2000/svg">
<path transform="translate(748,688)" d="m0 0h28l28 3 24 5 17 5 29 12 16 8 16 10 16 12 13 11 12 11 11 12 11 14 12 17 14 24 10 21 7 18 9 31 9 38 11 51 9 32 10 25 9 17 12 17 11 12 9 10 8 7 13 11 13 9 25 13 19 7 23 6 11 2 12 1h26l17-2 23-5 21-7 25-12 19-12 17-14 7-6 6-7 5-5 8-10 10-14 11-20 9-22 7-26 4-25v-34l-3-20-6-24-8-22-10-20-12-18-8-10-9-10-11-11-11-9-15-11-24-13-24-10-24-6-21-3h-28l-30 4-21 5-19 7-20 10-14 9-14 10-12 11-13 10-7 2h-12l-11-4-8-7-5-8-2-6v-12l4-11 9-10 16-15 19-14 13-8 23-12 28-11 25-7 19-4 25-3h35l26 3 26 6 33 11 17 7 21 12 18 13 14 11 16 15 15 15 9 11 10 14 12 19 11 22 8 21 6 19 6 29 2 18 1 30-2 25-5 29-7 25-10 24-8 16-13 22-16 21-10 11-7 8-11 11-14 11-13 10-21 13-16 8-22 10-29 9-27 5-20 2h-34l-19-2-29-6-24-7-23-10-23-13-22-15-13-11-8-7-16-16-9-11-12-15-12-20-8-15-11-27-9-29-8-33-12-56-7-26-9-26-12-25-12-19-11-14-12-13-7-7-17-13-15-10-21-11-33-11-24-4h-31l-23 3-21 5-23 8-20 9-19 12-14 12-8 7-17 17-8 11-7 10-12 21-8 20-7 23-4 21-1 11v28l3 23 6 25 10 25 10 19 12 18 11 13 9 10 8 7 12 10 15 10 18 10 19 8 16 5 26 5 20 2h28l26-5 21-6 26-11 21-12 12-9 9-7 12-11 8-8 9-6 9-2 12 1 8 4 8 7 6 10 1 3v11l-3 10-4 6-9 10-13 12-12 10-19 14-24 14-19 9-18 7-30 8-25 4-19 2h-20l-25-2-17-3-32-8-25-9-16-8-17-9-16-11-12-9-11-10-8-7-14-14-9-11-10-13-12-19-12-23-8-19-7-21-6-27-3-23-1-15v-20l3-26 4-22 7-25 8-20 8-18 14-24 14-19 12-14 21-21 10-8 14-11 17-11 21-12 16-7 32-10 31-6z" fill="#112FC6"/>
<path transform="translate(1219,688)" d="m0 0h35l26 3 26 6 33 11 17 7 21 12 18 13 14 11 16 15 15 15 9 11 10 14 12 19 11 22 8 21 6 19 6 29 2 18 1 30-2 25-5 29-7 25-10 24-8 16-13 22-16 21-10 11-7 8-11 11-14 11-13 10-21 13-16 8-22 10-29 9-27 5-20 2h-34l-19-2-29-6-9-3 1-4 13-2 4-2 3-9 6-8 2-4v-10l1-3 4-1-3-4v-2l-5-2-1-4h-6v-2l-6-2-6-3v-1l9 1 23 6 11 2 12 1h26l17-2 23-5 21-7 25-12 19-12 17-14 7-6 6-7 5-5 8-10 10-14 11-20 9-22 7-26 4-25v-34l-3-20-6-24-8-22-10-20-12-18-8-10-9-10-11-11-11-9-15-11-24-13-24-10-24-6-21-3h-28l-30 4-21 5-19 7-20 10-14 9-14 10-12 11-13 10-7 2h-12l-11-4-8-7-5-8-2-6v-12l4-11 9-10 16-15 19-14 13-8 23-12 28-11 25-7 19-4z" fill="#112FC6"/>
<path transform="translate(784,689)" d="m0 0 20 2 24 5 17 5 29 12 16 8 16 10 16 12 13 11 12 11 11 12 11 14 12 17 14 24 10 21 7 18 9 31 9 38 11 51 9 32 10 25 9 17 12 17 11 12 9 10 8 7 13 11 13 9 25 13 13 5-1 2 10 5v2l4-1 11 11v2l-4 1v13l-3 5-6 9-3 8-9 3h-8l-1 4-12-3-24-10-25-14-22-15-13-11-8-7-16-16-9-11-12-15-12-20-8-15-11-27-9-29-8-33-12-56-7-26-9-26-12-25-12-19-11-14-12-13-7-7-17-13-15-10-21-11-33-11-3-5-4-3-11-4-4-3-2-4h-2v-2l-3-1-1-6h-2l-4-4-2-9 1-7-2-5 1-3-2-1 2-3h2v-2l7-4z" fill="#61C8FD"/>
<path transform="translate(450,1277)" d="m0 0h55l1 1v28l-1 1h-12v62l5-5 11-13 12-16 14-17 6-8 1-2-13-1-1-2v-27l5-1h58l1 1v28l-1 1h-7l-5 2-12 14-9 11-11 13-3 4 1 6 10 18 15 28 12 22 2 5h14l1 1v28l-1 1h-59v-29l7-1h5l-2-5-8-16-14-27-3-5-4 2-10 13-11 13-5 7-1 18h12l1 1 1 28-1 1h-56l-1-1v-28l3-1h11v-123h-14v-29z" fill="#1230C6"/>
<path transform="translate(407,888)" d="m0 0h19l14 3 16 8 10 9 8 9 6 10 5 15 1 5v18l-4 16-8 15-9 11-13 10-14 6-15 3h-12l-16-3-12-5-11-8-9-9-8-13-5-12-2-7-1-12 2-17 6-16 9-12 4-5h2v-2l11-8 13-6z" fill="#112EC6"/>
<path transform="translate(784,689)" d="m0 0 20 2 24 5 17 5 29 12 16 8 16 10 16 12 13 11 12 11 11 12 9 11v3h-3v-2l-4-1-4-3 1 4-1 16-2-1-1-3v13h2l3 13v10h-1l-1 12-2-1v14l-1 3h-2v-2l-4 1v-2h-3l-2-6h-3v5l-3-3-10-17-10-14-13-15-11-11-17-13-15-10-21-11-33-11-3-5-4-3-11-4-4-3-2-4h-2v-2l-3-1-1-6h-2l-4-4-2-9 1-7-2-5 1-3-2-1 2-3h2v-2l7-4z" fill="#54AEF5"/>
<path transform="translate(935,1083)" d="m0 0 12 1 8 4 8 7 6 10 1 3v11l-3 10-4 6-9 10-13 12-12 10-19 14-24 14-19 9-18 7-30 8-11 2h-5l-1-2-5 1-2-2-4 2-4-1v-6l-5-4v-2l-4-2-6-7-6-8 1-10v-6h-2l-2-6-3-1 8-3 5-1 3-2 28-5 25-7 26-11 21-12 12-9 9-7 12-11 8-8 9-6z" fill="#54ADF5"/>
<path transform="translate(1037,1277)" d="m0 0h109l1 1v54h-30v-25h-37v38h37v29l-1 1h-35l-1 55h37v-37l4-1h25l1 1 1 66-1 1h-111v-29l14-1-1-122-12-1-1-1v-28z" fill="#112FC6"/>
<path transform="translate(1193,1277)" d="m0 0h58l5 3 1 3h2l7 8 5 5 1 3v136l-2 8-9 9h-2v2l-7 6h-60l-4-4-14-16v-143l5-5 7-8 5-5zm11 30v123l35 1 2-1 1-122-1-1z" fill="#1231C7"/>
<path transform="translate(808,1277)" d="m0 0h61l15 15v41l-1 1h-28v-27h-38v123h38l-1-2v-40l-2 1h-14l-1-1v-28l2-1h44l2 6-1 78-13 14-3 3h-61l-8-7-11-11-1-2v-142l7-8 3-3h2l2-4z" fill="#1230C6"/>
<path transform="translate(1315,1277)" d="m0 0h65l5 3 12 12 1 2v34l-2 1h-27l-1-1v-21h-40v44h53l7 6v2l4 2 6 7v69l-7 8-9 10-5 5h-60l-18-18-1-2v-31l1-1h29v22h39l1-50h-54l-14-14-2-3v-70l15-15z" fill="#1230C6"/>
<path transform="translate(627,1277)" d="m0 0h55l2 2v12l-1 15-3 1h-10l12 50 10 43 2 4 6-27 15-63v-7h-12l-1-1v-28l1-1h57l1 1v23l-1 6-12 1-7 26-15 62-14 56-2 7-1 1h-32l-5-18-16-63-17-68v-4h-12l-1-1v-28z" fill="#1231C7"/>
<path transform="translate(1051,1055)" d="m0 0h3l4 7 5 5 3 5 4 1v-2l-2-1-2-5 1-4 10 16 11 13 7 7 6 7 8 7 13 11 13 9 25 13 13 5-1 2 10 5v2l4-1 11 11v2l-4 1v13l-3 5-6 9-3 8-9 3h-8l-1 4-12-3-24-10-25-14-22-15-13-11-8-7-15-15v-2l2-2-1-8-2-4-1-4 1-7-3-1v-12l2-6v-4l-1 2h-2l2-15 2-7 2 1 1-4h2l1-9z" fill="#54AEF5"/>
<path transform="translate(1445,1277)" d="m0 0h57l6 3 14 14 1 3v35l-1 1h-29l-1-1v-24l-37-1v123h36l1-25 1-1h29l1 1v28l-1 12-15 15h-64l-18-18v-145l7-8 11-11z" fill="#1230C7"/>
<path transform="translate(930,1277)" d="m0 0h60l8 7 10 10 1 4v34l-1 1h-29v-26h-38v123h38l-1-4v-21l1-1h29l1 1v30l-1 10-10 10-4 5h-66l-9-10-7-6-1-3v-145z" fill="#1230C6"/>
<path transform="translate(1559,901)" d="m0 0h17l12 3 11 6 10 9 9 13 5 14 1 14-3 15-6 12-9 10-7 6-10 5-14 4h-15l-11-3-14-7-11-10-7-11-5-16v-16l5-16 7-11 5-6 10-8 11-5z" fill="#112EC6"/>
<path transform="translate(1167,697)" d="m0 0 2 1 3 2 8 1 1-2 1 4-3 3 8 18-1 6-3 5-5 5-5 8h-2l-1 6-3 1-3 5h-5l-1 4 3 2-23 11-16 10-14 10-12 11-13 10-7 2h-12l-11-4-8-7-5-8-2-6v-12l4-11 9-10 16-15 19-14 13-8 23-12 28-11z" fill="#54AEF6"/>
<path transform="translate(671,1139)" d="m0 0 16 7 21 7 26 5 20 2 22 1 2 2-7 2-10 2 5 5-1 2h2l1 10-1 6 6 8 7 8 8 7v6l8-2 1 2 6-1-1 4-27 3h-20l-25-2-17-3-32-8-20-7 3-3v-2l2-1-12-9v-2l-3-1v-2h-2l-4-8-6-10-1-4 2-10 3-3 2-4 5-2v-2l6-2 4 1 5-1 1 1h5z" fill="#435AD0"/>
<path transform="translate(748,688)" d="m0 0h28l8 1v1h-7l-1 2-6 2v2h-2v4l1 6 1 7-1 5 2 6 3 2v2h2l2 6 2 1v2h2v2l4 2 2 2 11 4 5 3 1 5-23-3h-31l-23 3-21 5-20 7-5-1-1-3-15-5-13-4-3-2v-2l-5-2-2-1-2-10 3-1-1-2h2v-2h-2l1-6 5-6 3-3h2l2-5 3 1 4-1v-6l32-10 31-6z" fill="#435AD0"/>
<path transform="translate(1219,688)" d="m0 0h35l26 3v4l3-1 2 2 8 4 3 3 6 2v2l4 2-2 8 1 6v13l-3 7-4 5-2 1-29 1-3 2-2 1-8-1h-28l-30 4-21 5-12 4h-6l2-5 3-1 2 1 2-5 4-1 1-6h2l2-6 6-5 3-6 2-3-1-7-3-6-3-7v-2l-2-1 4-2-1-2h-9l-3-3 7-3 19-4z" fill="#435AD0"/>
<path transform="translate(754,909)" d="m0 0h16l8 4 2 3 1 73h6v-71l-1-9 39 1 11 4 8 7 4 9v13l-4 8-7 6-5 1 5 15 8 15 2 4h-25l-2-7-7-20-5-13h-1l1 39-1 1h-47l1-24h-22l5 16 3 5v3h-22l-3-9-3-15v-19l3-11 6-12 7-8 9-6zm3 17-8 4-6 7-4 10v4l4 1 18-1v-25zm50 0v19l2 1h12l7-3 1-2v-10l-4-4-2-1z" fill="#1230C6"/>
<path transform="translate(1170,1150)" d="m0 0 9 1 23 6 11 2 12 1h26l15-1v2l13-1 8-2h8l8 2 1 1 1 9-1 1v11l-2 9-5 9-5 5-5 4-4 2-4 4-6 1v2h-5l-3 2h-3v2h5v1l-13 1h-34l-19-2-29-6-9-3 1-4 13-2 4-2 3-9 6-8 2-4v-10l1-3 4-1-3-4v-2l-5-2-1-4h-6v-2l-6-2-6-3z" fill="#435AD0"/>
<path transform="translate(1641,1321)" d="m0 0 5 1 36 14 30 12 10 5 1 1v27l-8 5-43 17-27 11h-4v-28l5-3 39-14h2v-2l-5-1-35-13-6-3z" fill="#1230C6"/>
<path transform="translate(411,1321)" d="m0 0h3l1 3v19l-1 8-24 9-20 7h-2v2l6 1 21 8 17 6 2 2 1 29-10-3-37-15-32-13-3-2v-29l8-4 38-15 30-12z" fill="#1230C6"/>
<path transform="translate(1584,1277)" d="m0 0h21l1 5-19 101-14 73-2 4h-22l1-9 29-152 4-20z" fill="#1230C6"/>
<path transform="translate(852,909)" d="m0 0 21 1 12 22 10 18v-32l-1-9h20l3 1-1 6v68l1 7-1 1h-19l-3-3-13-24-8-14v25l1 11 1 4-1 1h-22l1-48v-13z" fill="#1331C7"/>
<path transform="translate(1100,909)" d="m0 0h14l30 1 8 3 7 6 3 7v8l-4 8-3 3h-2l5 5 7 8 2 9-2 10-6 8-8 5-10 2h-41zm21 17v14l1 1h13l6-2 1-2v-8l-4-3zm0 30v19l1 1h16l7-3 2-3v-8l-4-5-8-1z" fill="#1432C7"/>
<path transform="translate(607,1100)" d="m0 0 9 3 1 3 4 1 6 5 1 2 6 2 11 7 10 7 16 9v2l-6 1v-2l-6 2-5-1-4 1v2l-5 3-3 6h-2v8l-1 4 6 11 4 6v3h2l3 3v2l4 2 9 7-3 1 1 3-6 1-16-7-20-11-11-8-3-6h-2l-5-11v-2l-2-1-3-9-2-4v-9l-1-6v-9l1-2 1-9 6-7 5-1z" fill="#194FD5"/>
<path transform="translate(660,707)" d="m0 0h4l-1 5h-3l-1 2-4 1-5 5-3 4h-2l-2 8h2l-1 5-2 3 1 7 5 1v2h2l3 3 18 6 11 3v4h2v2l-20 9-17 11-4-2-1-1v4h-2v-2l-6 2-7 1-1 1-19 3-3 1-5-5-1-2-5-2-1-4 1-10-1-2v-6h3l-1-5 4-7 2-6h3l4-2 4-3 7-6 1-4 5-2v-3l23-13z" fill="#194FD5"/>
<path transform="translate(786,909)" d="m0 0 39 1 11 4 8 7 4 9v13l-4 8-7 6-5 1 5 15 8 15 2 4h-25l-2-7-7-20-5-13h-1l1 39-1 1h-24l-2-1v-2h6v-71zm21 17v19l2 1h12l7-3 1-2v-10l-4-4-2-1z" fill="#1331C7"/>
<path transform="translate(1324,909)" d="m0 0 35 1 9 3 9 7 6 8 4 11 1 16-2 11-6 12-5 6-8 5-6 2-8 1h-29zm21 17v50h8l7-3 5-5 3-9v-15l-3-10-5-6-5-2z" fill="#1433C7"/>
<path transform="translate(1168,909)" d="m0 0h22l1 3-1 3v53l3 5 7 2 7-2 2-3 1-6v-42l-1-12 5-1 18 1-1 4-1 56-2 8-5 8-10 6-4 1h-19l-9-4-6-5-4-7-2-16z" fill="#1332C7"/>
<path transform="translate(682,909)" d="m0 0h19l10 3 8 6v6l-4 10-4-2-6-4-6-2h-10l-9 3-4 2-2 4-4 11-1 11 1 3 4-10 7-8 6-3 10-1 6 2 3 3 1 10-1 7-9-2-13-1-8 3-2 3 1 5 7 6 7 2h7l10-3 9-6 2 2 2 9 1 5-8 6-8 3-6 1h-15l-10-3-8-5-7-7-7-14-1-4v-18l4-12 6-8 9-8 9-4z" fill="#1331C7"/>
<path transform="translate(1278,692)" d="m0 0h7l24 6-1 3 10 3 5 2v2l4 1 5 5 4 2 1 3 3 1 1 9-1 10-1 2v9l-5 8-6 2-3 2h-8l-2-1v2h-11l-12-4-17-4-11-2v-3l3-1 29-1 5-5 3-7v-16l-1-5 2-3-1-4-3-3-6-2-5-4-7-2-1-2h-2v-2z" fill="#194FD5"/>
<path transform="translate(1262,910)" d="m0 0h24l-1 3-1 63 25-1 7-2 4-1 1 1v18l-1 1h-56l-1-2v-78z" fill="#1431C7"/>
<path transform="translate(592,909)" d="m0 0h22l1 2-1 2-1 62h24l9-2h4v18l-1 1h-57l1-65z" fill="#1535C8"/>
<path transform="translate(1325,1146)" d="m0 0 6 2h4l3 9-2 6 1 4v7l-4 9-4 8-6 5-5 5-5 2v5l-2 3 3 1-3 2-19 5-18 3h-12v-2l6-3 5 1v-2l9-3 1-3 8-5 3-1 2-4 6-11 1-9v-9l1-3-1-7-8-2h-10l-8 2-9 1-2-1v-2l13-3 25-7 4 2 5-2 6-1 2-1 4 1z" fill="#194FD5"/>
<path transform="translate(1236,909)" d="m0 0 23 1-1 2-1 77 3 1-2 2h-22l-1-2 1-4 1-22z" fill="#1738C9"/>
<path transform="translate(692,938)" d="m0 0 10 1 4 4 1 10-1 7-9-2-13-1-8 3-4 5-3-4 7-14 7-6z" fill="#1534C8"/>
<path transform="translate(623,727)" d="m0 0h2l-1 3-5 1-1 5-5 5-4 3-3 1-1 2-2-1-1 2-2-3 2-4 13-9z" fill="#1637C9"/>
<path transform="translate(1260,991)" d="m0 0" fill="#54AEF6"/>
</svg>
